<svg xmlns="http://www.w3.org/2000/svg" width="50" height="50" viewBox="0 0 50 50">
  <g id="グループ_22" data-name="グループ 22" transform="translate(-320 -141)">
    <g id="楕円形_534" data-name="楕円形 534" transform="translate(320 141)" fill="#fff" stroke="#707070" stroke-width="1">
      <circle cx="25" cy="25" r="25" stroke="none"/>
      <circle cx="25" cy="25" r="24.5" fill="none"/>
    </g>
    <g id="グループ_12" data-name="グループ 12" transform="translate(-19.449 53.276)">
      <path id="パス_4422" data-name="パス 4422" d="M364.907,125.724l-.452-.231c-.613-.314-15.007-7.8-15.007-17.355a8.5,8.5,0,0,1,5.451-8.3c3.351-1.172,7.07.028,9.873,3.135,2.8-3.106,6.522-4.305,9.872-3.135a8.5,8.5,0,0,1,5.451,8.3,11.762,11.762,0,0,1-1.888,6.1l-1.191-.724a10.393,10.393,0,0,0,1.685-5.38c0-3.336-1.731-6.013-4.517-6.988-2.995-1.048-6.394.228-8.867,3.331l-.545.684-.545-.684c-2.474-3.1-5.872-4.378-8.868-3.331-2.786.975-4.517,3.652-4.517,6.988,0,7.972,11.826,14.794,13.931,15.944a45.148,45.148,0,0,0,3.867-2.388l.79,1.149C367.342,124.278,364.907,125.724,364.907,125.724Z" transform="translate(0 0)" fill="#888"/>
      <path id="パス_4423" data-name="パス 4423" d="M389.893,135.657a2.188,2.188,0,0,1-.906-.195l-4.92-2.222a2.237,2.237,0,1,1,1.841-4.077l.305.138-2.547-5.2a2.239,2.239,0,0,1,1.024-2.993,2.236,2.236,0,0,1,2.993,1.026l1.28,2.613,5.544-.877a1.353,1.353,0,0,1,1.515.988l1.6,6.072a1.353,1.353,0,0,1-.712,1.556l-6.083,2.979a1.315,1.315,0,0,1-.306.1A2.28,2.28,0,0,1,389.893,135.657Zm-4.9-5.3a.843.843,0,0,0-.348,1.611l4.92,2.221a.833.833,0,0,0,.591.033.617.617,0,0,1,.073-.018l6.043-2.958-1.582-6-6.012.952a.7.7,0,0,1-.735-.382l-1.507-3.076a.858.858,0,0,0-1.128-.387.844.844,0,0,0-.385,1.128l3.4,6.94a.7.7,0,0,1-.912.942l-2.07-.935A.842.842,0,0,0,384.988,130.359Z" transform="translate(-17.826 -11.502)" fill="#888"/>
    </g>
  </g>
</svg>
