<svg xmlns="http://www.w3.org/2000/svg" width="24" height="19.672" viewBox="0 0 24 19.672">
  <path id="パス_341" data-name="パス 341" d="M21.639,4.721v.787A14.072,14.072,0,0,1,7.475,19.672,12.954,12.954,0,0,1,0,17.311H1.18a9.664,9.664,0,0,0,5.9-1.967A5.512,5.512,0,0,1,2.361,11.8H4.721A4.673,4.673,0,0,1,.787,7.082h0c.787.393,1.574.393,2.361.787A5.218,5.218,0,0,1,.787,3.934a5.592,5.592,0,0,1,.787-2.361A15.259,15.259,0,0,0,11.8,5.9V4.721A4.784,4.784,0,0,1,16.525,0a4.987,4.987,0,0,1,3.541,1.574A27.108,27.108,0,0,0,23.213.393a7.057,7.057,0,0,1-1.967,2.754A5.686,5.686,0,0,0,24,2.361c-.787.787-1.574,1.967-2.361,2.361" fill="#fff" fill-rule="evenodd"/>
</svg>
